#!OML:ASF E:\Steps\Project 1\Capture day 1\Session 2\Subject.ASF
:FULLY-SPECIFIED
:DEGREES
535
root 21.3583 16.0727 -4.94137 -162.227 -0.877726 181.016
lowerback -27.7604 -2.29982 -4.95531
upperback 1.1841 -1.76633 0.705164
thorax 16.3885 -1.32788 2.77013
lowerneck -4.534 -3.53139 13.3867
upperneck 27.8462 1.1653 -18.9445
head 9.34315 1.2447 -8.97872
rclavicle 1.19271e-014 9.93923e-015
rhumerus -40.0337 -17.1237 -77.3046
rradius 35.4109
rwrist -3.6345
rhand -5.87885 -53.5751
rfingers 7.12502
rthumb 19.9488 -442.571
lclavicle 1.19271e-014 9.93923e-015
lhumerus -30.4492 1.25979 81.1843
lradius 23.791
lwrist -4.73526
lhand -21.6311 -10.1159
lfingers 7.12502
lthumb 4.76495 19.8105
rfemur -24.6879 4.36336 25.2778
rtibia 11.4254
rfoot -10.6268 0.319752
rtoes -26.484
lfemur -42.3985 -0.653194 -20.2413
ltibia 73.9681
lfoot -0.0487674 4.71764
ltoes -22.2655
536
root 21.3705 16.077 -5.03694 -162.235 -0.633677 180.922
lowerback -27.6942 -2.23165 -5.03761
upperback 1.20333 -1.63614 0.619309
thorax 16.3652 -1.27309 2.77455
lowerneck -4.38603 -3.65567 13.3954
upperneck 27.8194 0.999105 -18.9601
head 9.26948 1.17215 -8.99011
rclavicle -1.1281e-014 -3.97569e-015
rhumerus -39.3262 -16.4358 -77.7052
rradius 35.6207
rwrist -4.18157
rhand -5.9412 -53.6097
rfingers 7.12502
rthumb 19.8889 -442.612
lclavicle -1.1281e-014 -3.97569e-015
lhumerus -31.3576 1.94182 80.7305
lradius 23.9685
lwrist -4.96086
lhand -21.8222 -10.3663
lfingers 7.12502
lthumb 4.5805 19.5642
rfemur -24.2828 4.27709 25.2942
rtibia 11.3491
rfoot -11.0438 0.529219
rtoes -26.5493
lfemur -43.3763 -0.892869 -20.302
ltibia 73.157
lfoot -0.566478 4.84864
ltoes -23.343
537
root 21.3757 16.0822 -5.12191 -162.13 -0.358501 180.831
lowerback -27.5999 -2.08661 -5.0157
upperback 1.17402 -1.44185 0.506345
thorax 16.261 -1.17962 2.71764
lowerneck -4.46753 -3.645 13.4519
upperneck 27.7959 1.01432 -19.0582
head 9.27855 1.17077 -9.03979
rclavicle 6.01324e-015 -2.38542e-015
rhumerus -38.99 -15.8989 -78.0137
rradius 36.5319
rwrist -4.63561
rhand -6.06688 -54.4603
rfingers 7.12502
rthumb 19.7681 -443.475
lclavicle 6.01324e-015 -2.38542e-015
lhumerus -31.7735 2.28875 80.3892
lradius 23.8546
lwrist -4.75202
lhand -21.7062 -10.1201
lfingers 7.12502
lthumb 4.69248 19.8079
rfemur -24.2365 4.39372 25.2421
rtibia 11.7248
rfoot -11.3702 0.579408
rtoes -23.8756
lfemur -44.4499 -1.11643 -20.3695
ltibia 72.2315
lfoot -1.17159 5.17338
ltoes -23.9235
538
root 21.3822 16.0867 -5.20754 -162.188 -0.106646 180.85
lowerback -27.4083 -2.22123 -4.79473
upperback 1.18279 -1.17067 0.432731
thorax 16.1626 -0.825299 2.68712
lowerneck -4.33196 -3.73677 13.3347
upperneck 27.9911 0.981563 -18.9821
head 9.31437 1.17743 -8.99716
rclavicle -6.11263e-015 -7.95139e-016
rhumerus -38.4788 -15.5986 -78.2053
rradius 36.9975
rwrist -4.82223
rhand -6.02007 -55.0014
rfingers 7.12502
rthumb 19.8131 -444.012
lclavicle -6.11263e-015 -7.95139e-016
lhumerus -31.9678 2.55287 80.1033
lradius 23.5759
lwrist -4.50049
lhand -21.659 -10.0013
lfingers 7.12502
lthumb 4.73805 19.9257
rfemur -23.8583 4.70313 25.2851
rtibia 11.8531
rfoot -11.9878 0.545185
rtoes -27.291
lfemur -45.2409 -1.28701 -20.2917
ltibia 71.1366
lfoot -1.68197 5.63907
ltoes -25.0914
539
root 21.3882 16.088 -5.2979 -162.272 0.162258 180.733
lowerback -27.2973 -2.06969 -4.89403
upperback 1.22843 -0.933767 0.337836
thorax 16.1406 -0.728614 2.73175
lowerneck -4.11281 -3.82392 13.1203
upperneck 28.2952 1.02476 -18.8465
head 9.38879 1.23396 -8.91181
rclavicle -1.44119e-015 -4.37326e-015
rhumerus -37.8949 -15.2407 -78.3682
rradius 37.2644
rwrist -5.21171
rhand -5.90695 -54.5407
rfingers 7.12502
rthumb 19.9218 -443.54
lclavicle -1.44119e-015 -4.37326e-015
lhumerus -32.201 2.85463 79.8347
lradius 23.2948
lwrist -4.51532
lhand -21.5686 -10.1345
lfingers 7.12502
lthumb 4.82537 19.7906
rfemur -23.3581 4.71224 25.2273
rtibia 11.7939
rfoot -12.2961 0.707292
rtoes -27.8671
lfemur -45.918 -1.5261 -20.3512
ltibia 69.8643
lfoot -2.39771 6.3123
ltoes -26.4344
540
root 21.3905 16.0891 -5.39168 -162.362 0.529559 180.608
lowerback -27.2611 -1.82876 -4.91768
upperback 1.34008 -0.592073 0.184051
thorax 16.2232 -0.582147 2.70973
lowerneck -4.43842 -3.85048 13.4645
upperneck 28.0328 0.887737 -19.2663
head 9.32397 1.1255 -9.14557
rclavicle 1.2275e-014 6.75868e-015
rhumerus -37.3115 -14.9994 -78.5555
rradius 37.5799
rwrist -5.83374
rhand -6.25188 -53.3694
rfingers 7.12502
rthumb 19.5902 -442.402
lclavicle 1.2275e-014 6.75868e-015
lhumerus -32.2141 2.72928 79.6235
lradius 22.8897
lwrist -4.30527
lhand -21.4774 -10.4744
lfingers 7.12502
lthumb 4.91343 19.4486
rfemur -23.0201 4.78931 25.147
rtibia 12.0543
rfoot -12.7162 0.855372
rtoes -28.7632
lfemur -46.4978 -1.69998 -20.4237
ltibia 68.3829
lfoot -3.29431 7.10588
ltoes -26.8984
541
root 21.3976 16.0878 -5.48726 -162.53 0.793373 180.609
lowerback -27.1197 -1.63732 -4.84709
upperback 1.39833 -0.356416 0.060036
thorax 16.2004 -0.471154 2.62755
lowerneck -4.42734 -3.94494 13.6328
upperneck 28.0609 0.760281 -19.3747
head 9.30117 1.07599 -9.22993
rclavicle 5.1684e-015 1.74931e-014
rhumerus -37.0563 -14.5045 -78.8658
rradius 38.3826
rwrist -6.77519
rhand -6.82024 -52.5923
rfingers 7.12502
rthumb 19.0437 -441.68
lclavicle 5.1684e-015 1.74931e-014
lhumerus -32.5537 2.54481 79.3623
lradius 22.6789
lwrist -4.0059
lhand -21.4762 -10.5605
lfingers 7.12502
lthumb 4.91455 19.3625
rfemur -22.5593 5.21288 25.1835
rtibia 12.3288
rfoot -13.2867 0.622393
rtoes -26.5421
lfemur -46.8948 -1.8321 -20.2977
ltibia 66.7336
lfoot -3.54348 7.73383
ltoes -25.9458
542
root 21.4038 16.0822 -5.57792 -162.499 0.877861 180.444
lowerback -27.0063 -1.60833 -4.96301
upperback 1.36996 -0.264453 -0.0590218
thorax 16.1014 -0.430452 2.59707
lowerneck -4.47876 -3.95245 13.6956
upperneck 28.16 0.788784 -19.4448
head 9.34998 1.09601 -9.277
rclavicle -1.78906e-015 1.63003e-014
rhumerus -36.4918 -14.2885 -79.024
rradius 38.5701
rwrist -7.05827
rhand -6.72982 -52.1705
rfingers 7.12502
rthumb 19.1307 -441.25
lclavicle -1.78906e-015 1.63003e-014
lhumerus -33.0695 2.68142 79.0675
lradius 22.623
lwrist -4.02836
lhand -21.5664 -10.2521
lfingers 7.12502
lthumb 4.82749 19.6729
rfemur -22.2214 5.459 25.0405
rtibia 12.4025
rfoot -13.4766 0.372179
rtoes -25.0431
lfemur -47.453 -2.16676 -20.3067
ltibia 65.0063
lfoot -3.15844 8.21081
ltoes -22.5811
543
root 21.4069 16.0772 -5.66564 -162.38 1.0054 180.163
lowerback -27.0662 -1.59186 -5.18139
upperback 1.43737 -0.141406 -0.204943
thorax 16.1999 -0.391289 2.60441
lowerneck -4.80373 -3.85444 13.8536
upperneck 28.038 0.893385 -19.7427
head 9.3883 1.1064 -9.42369
rclavicle -1.98785e-015 9.93923e-015
rhumerus -36.0716 -13.9992 -79.2191
rradius 39.3629
rwrist -7.15481
rhand -6.26618 -53.0824
rfingers 7.12502
rthumb 19.5765 -442.117
lclavicle -1.98785e-015 9.93923e-015
lhumerus -33.0944 3.03019 78.6998
lradius 22.1965
lwrist -4.37571
lhand -21.5496 -10.0322
lfingers 7.12502
lthumb 4.84365 19.8924
rfemur -21.9511 5.55757 24.7608
rtibia 12.3075
rfoot -14.1424 0.198285
rtoes -29.6689
lfemur -48.0725 -2.51554 -20.4537
ltibia 63.2612
lfoot -3.45773 8.61099
ltoes -20.7483
544
root 21.4129 16.0738 -5.75544 -162.514 1.29427 180.023
lowerback -26.9472 -1.45301 -5.29801
upperback 1.51897 0.0873628 -0.323235
thorax 16.2176 -0.300338 2.62778
lowerneck -5.05997 -3.69246 14.0735
upperneck 27.9406 1.11105 -20.018
head 9.44652 1.18992 -9.5666
rclavicle 9.93923e-016 5.56597e-015
rhumerus -35.4923 -13.6595 -79.4129
rradius 39.6387
rwrist -7.53784
rhand -6.47092 -53.9915
rfingers 7.12502
rthumb 19.3796 -443.046
lclavicle 9.93923e-016 5.56597e-015
lhumerus -33.1129 3.62523 78.2265
lradius 21.5546
lwrist -5.07973
lhand -21.3193 -9.84025
lfingers 7.12502
lthumb 5.06608 20.0792
rfemur -21.5771 5.87761 24.6216
rtibia 12.541
rfoot -14.2996 0.109394
rtoes -24.67
lfemur -48.3849 -2.60799 -20.4772
ltibia 61.4751
lfoot -4.89342 8.87876
ltoes -24.4117
545
root 21.4175 16.0701 -5.84925 -162.843 1.658 179.991
lowerback -26.6207 -1.23509 -5.31888
upperback 1.52189 0.368012 -0.407508
thorax 16.0342 -0.172852 2.65518
lowerneck -4.80417 -3.95907 14.0394
upperneck 28.0503 0.830293 -20.0739
head 9.37004 1.07864 -9.59637
rclavicle -1.2921e-015 -5.96354e-015
rhumerus -35.26 -13.2301 -79.5426
rradius 40.1762
rwrist -8.12069
rhand -6.72943 -54.6668
rfingers 7.12502
rthumb 19.131 -443.746
lclavicle -1.2921e-015 -5.96354e-015
lhumerus -33.3869 4.02283 77.8485
lradius 21.0509
lwrist -5.64799
lhand -21.3092 -9.61878
lfingers 7.12502
lthumb 5.07582 20.3004
rfemur -21.3763 6.25713 24.6061
rtibia 13.5865
rfoot -15.0049 0.00259845
rtoes -24.7868
lfemur -48.383 -2.51399 -20.4218
ltibia 59.5831
lfoot -4.95764 9.43651
ltoes -23.9204
